<svg width="59" height="61" viewBox="0 0 59 61" fill="none" xmlns="http://www.w3.org/2000/svg">
<g clip-path="url(#clip0_9560_46851)">
<path fill-rule="evenodd" clip-rule="evenodd" d="M49 16.4492H11C10.7239 16.4492 10.5 16.6731 10.5 16.9492V36.1992H49.5V16.9492C49.5 16.6731 49.2761 16.4492 49 16.4492ZM10.5 38.9492V37.6992H49.5V38.9492C49.5 39.2254 49.2761 39.4492 49 39.4492H11C10.7239 39.4492 10.5 39.2254 10.5 38.9492ZM11 14.9492C9.89543 14.9492 9 15.8446 9 16.9492V38.9492C9 40.0538 9.89543 40.9492 11 40.9492H28.2241C28.0039 41.7574 27.7723 42.3067 27.431 42.774C27.063 43.2777 26.5262 43.742 25.6055 44.3113C25.4542 44.4049 25.3478 44.5436 25.2929 44.6992H23.5C23.0858 44.6992 22.75 45.035 22.75 45.4492C22.75 45.8634 23.0858 46.1992 23.5 46.1992H37C37.4142 46.1992 37.75 45.8634 37.75 45.4492C37.75 45.035 37.4142 44.6992 37 44.6992H35.2072C35.1592 44.5631 35.0715 44.4394 34.947 44.3469C34.1904 43.7855 33.749 43.3283 33.4435 42.8264C33.1525 42.3485 32.9553 41.7825 32.7679 40.9492H49C50.1046 40.9492 51 40.0538 51 38.9492V16.9492C51 15.8446 50.1046 14.9492 49 14.9492H11ZM33.0398 44.6992C32.6909 44.3564 32.4026 44.0012 32.1622 43.6064C31.7238 42.8863 31.4777 42.0873 31.2668 41.107C31.2554 41.0541 31.2499 41.0012 31.2498 40.9492H29.7502C29.7501 41.0111 29.7424 41.074 29.7262 41.1367C29.4709 42.1254 29.1719 42.9338 28.6422 43.6589C28.3673 44.035 28.0415 44.3738 27.6515 44.6992H33.0398Z" fill="#272525"/>
<mask id="path-2-inside-1_9560_46851" fill="white">
<rect x="12" y="18.9492" width="24" height="15" rx="1"/>
</mask>
<rect x="12" y="18.9492" width="24" height="15" rx="1" stroke="#272525" stroke-width="3" mask="url(#path-2-inside-1_9560_46851)"/>
<path d="M29 29.9492L33 26.4492L29 22.9492" stroke="#272525" stroke-width="1.5" stroke-linecap="round"/>
<path d="M19 22.9492L15 26.4492L19 29.9492" stroke="#272525" stroke-width="1.5" stroke-linecap="round"/>
<path d="M40 19.9492H48" stroke="#272525" stroke-width="1.5" stroke-linecap="round"/>
<path d="M40 22.9492H48" stroke="#272525" stroke-width="1.5" stroke-linecap="round"/>
<path d="M40 25.9492H48" stroke="#272525" stroke-width="1.5" stroke-linecap="round"/>
<path d="M40 28.9492H48" stroke="#272525" stroke-width="1.5" stroke-linecap="round"/>
<path d="M40 31.9492H48" stroke="#272525" stroke-width="1.5" stroke-linecap="round"/>
<path d="M22.3848 29.9492L25.3848 22.9492" stroke="#272525" stroke-width="1.5" stroke-linecap="round"/>
</g>
<defs>
<clipPath id="clip0_9560_46851">
<rect width="58.627" height="60" fill="white" transform="translate(0 0.949219)"/>
</clipPath>
</defs>
</svg>
