<svg width="42" height="32" viewBox="0 0 42 32" fill="none" xmlns="http://www.w3.org/2000/svg">
<path fill-rule="evenodd" clip-rule="evenodd" d="M2 1.5H40C40.2761 1.5 40.5 1.72386 40.5 2V21.25H1.5V2C1.5 1.72386 1.72386 1.5 2 1.5ZM1.5 22.75V24C1.5 24.2761 1.72386 24.5 2 24.5H40C40.2761 24.5 40.5 24.2761 40.5 24V22.75H1.5ZM0 2C0 0.89543 0.895431 0 2 0H40C41.1046 0 42 0.895431 42 2V24C42 25.1046 41.1046 26 40 26H23.7679C23.9553 26.8332 24.1525 27.3993 24.4435 27.8772C24.749 28.3791 25.1904 28.8363 25.947 29.3977C26.0715 29.4902 26.1592 29.6139 26.2072 29.75H28C28.4142 29.75 28.75 30.0858 28.75 30.5C28.75 30.9142 28.4142 31.25 28 31.25H14.5C14.0858 31.25 13.75 30.9142 13.75 30.5C13.75 30.0858 14.0858 29.75 14.5 29.75H16.2929C16.3478 29.5943 16.4542 29.4557 16.6055 29.3621C17.5262 28.7927 18.063 28.3285 18.431 27.8248C18.7723 27.3575 19.0039 26.8082 19.2241 26H2C0.89543 26 0 25.1046 0 24V2ZM20.7502 26C20.7501 26.0619 20.7424 26.1248 20.7262 26.1875C20.4709 27.1762 20.1719 27.9845 19.6422 28.7097C19.3673 29.0858 19.0415 29.4245 18.6515 29.75H24.0398C23.6909 29.4072 23.4026 29.052 23.1622 28.6572C22.7238 27.9371 22.4777 27.1381 22.2668 26.1578C22.2554 26.1048 22.2499 26.052 22.2498 26H20.7502ZM5 10C6.10457 10 7 9.10457 7 8C7 6.89543 6.10457 6 5 6C3.89543 6 3 6.89543 3 8C3 9.10457 3.89543 10 5 10ZM32.4697 17.5303C32.1768 17.2374 32.1768 16.7626 32.4697 16.4697L34.4393 14.5L32.4697 12.5303C32.1768 12.2374 32.1768 11.7626 32.4697 11.4697C32.7626 11.1768 33.2374 11.1768 33.5303 11.4697L35.5 13.4393L37.4697 11.4697C37.7626 11.1768 38.2374 11.1768 38.5303 11.4697C38.8232 11.7626 38.8232 12.2374 38.5303 12.5303L36.5607 14.5L38.5303 16.4697C38.8232 16.7626 38.8232 17.2374 38.5303 17.5303C38.2374 17.8232 37.7626 17.8232 37.4697 17.5303L35.5 15.5607L33.5303 17.5303C33.2374 17.8232 32.7626 17.8232 32.4697 17.5303ZM8.25 8C8.25 7.58579 8.58579 7.25 9 7.25H17.7959C18.7624 7.25 19.5459 8.0335 19.5459 9V13C19.5459 13.1381 19.6578 13.25 19.7959 13.25H27.1893L23.6967 9.75736C23.4038 9.46447 23.4038 8.98959 23.6967 8.6967C23.9896 8.40381 24.4645 8.40381 24.7574 8.6967L29.5303 13.4697C29.8232 13.7626 29.8232 14.2374 29.5303 14.5303L24.7574 19.3033C24.4645 19.5962 23.9896 19.5962 23.6967 19.3033C23.4038 19.0104 23.4038 18.5355 23.6967 18.2426L27.1893 14.75H19.7959C18.8294 14.75 18.0459 13.9665 18.0459 13V9C18.0459 8.86193 17.934 8.75 17.7959 8.75H9C8.58579 8.75 8.25 8.41421 8.25 8Z" fill="#272525"/>
</svg>
