<svg width="50" height="50" viewBox="0 0 50 50" fill="none" xmlns="http://www.w3.org/2000/svg">
<path d="M0 2.5C0 1.11929 1.11929 0 2.5 0H47.5C48.8807 0 50 1.11929 50 2.5C50 3.88071 48.8807 5 47.5 5H2.5C1.11929 5 0 3.88071 0 2.5Z" fill="#272525"/>
<path d="M0 25.5C0 24.1193 1.11929 23 2.5 23H47.5C48.8807 23 50 24.1193 50 25.5C50 26.8807 48.8807 28 47.5 28H2.5C1.11929 28 0 26.8807 0 25.5Z" fill="#272525"/>
<path d="M0 47.5C0 46.1193 1.11929 45 2.5 45H47.5C48.8807 45 50 46.1193 50 47.5C50 48.8807 48.8807 50 47.5 50H2.5C1.11929 50 0 48.8807 0 47.5Z" fill="#272525"/>
</svg>
