<svg width="74" height="69" viewBox="0 0 74 69" fill="none" xmlns="http://www.w3.org/2000/svg">
<path d="M23.2482 24.3018H2.00391V67.2153H23.2482V24.3018Z" stroke="#E40B43" stroke-width="2.12443" stroke-linecap="round" stroke-linejoin="round"/>
<path fill-rule="evenodd" clip-rule="evenodd" d="M15.4941 6.1377H42.4744V30.6749H27.2847V19.8403H15.4941V6.1377Z" stroke="#E40B43" stroke-width="2.12443" stroke-linecap="round" stroke-linejoin="round"/>
<path d="M48.9534 34.8174H27.2842V67.215H48.9534V34.8174Z" stroke="#E40B43" stroke-width="2.12443" stroke-linecap="round" stroke-linejoin="round"/>
<path fill-rule="evenodd" clip-rule="evenodd" d="M46.4043 1.46387H72.0037V67.215H46.4043H52.7776V30.6748H46.4043V1.46387Z" stroke="#E40B43" stroke-width="2.12443" stroke-linecap="round" stroke-linejoin="round"/>
<path d="M27.2842 30.6748V34.8174" stroke="#E40B43" stroke-width="2.12443" stroke-linecap="round" stroke-linejoin="round"/>
<path fill-rule="evenodd" clip-rule="evenodd" d="M27.2847 30.6749H42.4744V6.1377H15.4941V19.8403H27.2847V30.6749Z" fill="#E40B43"/>
<path fill-rule="evenodd" clip-rule="evenodd" d="M35.7819 44.696H31.8517V40.6596H35.7819V44.696ZM49.0596 34.8174H27.2842V67.215H46.4041H49.0596V34.8174ZM35.7819 53.7248H31.8517V49.6884H35.7819V53.7248ZM40.5619 53.7248V49.6884H44.4921V53.7248H40.5619ZM40.5619 44.696V40.6596H44.4921V44.696H40.5619Z" fill="#E40B43"/>
<path fill-rule="evenodd" clip-rule="evenodd" d="M14.9629 54.2562V50.2198H18.8931V54.2562H14.9629ZM23.2482 67.2153V24.3018H2.00391V67.2153H23.2482ZM10.183 54.2562H6.25277V50.2198H10.183V54.2562ZM14.9629 45.2274V41.2972H18.8931V45.2274H14.9629ZM10.183 45.2274H6.25277V41.2972H10.183V45.2274ZM18.8931 36.3048H14.9629V32.2684H18.8931V36.3048ZM10.183 36.3048H6.25277V32.2684H10.183V36.3048Z" fill="#E40B43"/>
<path fill-rule="evenodd" clip-rule="evenodd" d="M52.7776 30.6748V67.215H72.0037V1.46387H46.4043V30.6748H52.7776ZM67.4362 35.6672H62.2313V30.5686H67.4362V35.6672ZM67.4362 24.0891H62.2313V18.9904H67.4362V24.0891ZM56.1767 24.0891H50.9718V18.9904H56.1767V24.0891ZM67.4362 12.5109H62.2313V7.41227H67.4362V12.5109ZM56.1767 12.5109H50.9718V7.41227H56.1767V12.5109Z" fill="#E40B43"/>
</svg>
