<svg width="30" height="30" viewBox="0 0 30 30" fill="none" xmlns="http://www.w3.org/2000/svg">
<path fill-rule="evenodd" clip-rule="evenodd" d="M6.98956 0.804688C5.36207 0.804687 3.8012 1.45104 2.65017 2.60163C1.49914 3.75222 0.852187 5.31284 0.851562 6.94033V23.3083C0.851563 24.9362 1.49824 26.4975 2.64934 27.6486C3.80044 28.7997 5.36166 29.4463 6.98956 29.4463H23.3576C24.9851 29.4457 26.5457 28.7987 27.6963 27.6477C28.8468 26.4967 29.4932 24.9358 29.4932 23.3083V6.94033C29.4926 5.31325 28.8459 3.75299 27.6954 2.60247C26.5449 1.45194 24.9846 0.805312 23.3576 0.804688H6.98956ZM25.1231 6.94976C25.1231 7.41862 24.9368 7.86828 24.6053 8.19982C24.2737 8.53136 23.8241 8.71762 23.3552 8.71762C22.8863 8.71762 22.4367 8.53136 22.1051 8.19982C21.7736 7.86828 21.5873 7.41862 21.5873 6.94976C21.5873 6.48089 21.7736 6.03123 22.1051 5.69969C22.4367 5.36816 22.8863 5.1819 23.3552 5.1819C23.8241 5.1819 24.2737 5.36816 24.6053 5.69969C24.9368 6.03123 25.1231 6.48089 25.1231 6.94976ZM15.1759 10.2215C13.8756 10.2215 12.6285 10.738 11.7091 11.6575C10.7896 12.5769 10.2731 13.824 10.2731 15.1243C10.2731 16.4246 10.7896 17.6717 11.7091 18.5912C12.6285 19.5106 13.8756 20.0272 15.1759 20.0272C16.4762 20.0272 17.7233 19.5106 18.6428 18.5912C19.5622 17.6717 20.0788 16.4246 20.0788 15.1243C20.0788 13.824 19.5622 12.5769 18.6428 11.6575C17.7233 10.738 16.4762 10.2215 15.1759 10.2215ZM7.91356 15.1243C7.91356 13.1989 8.67845 11.3522 10.04 9.99074C11.4015 8.62922 13.2481 7.86433 15.1736 7.86433C17.099 7.86433 18.9456 8.62922 20.3072 9.99074C21.6687 11.3522 22.4336 13.1989 22.4336 15.1243C22.4336 17.0498 21.6687 18.8964 20.3072 20.2579C18.9456 21.6194 17.099 22.3843 15.1736 22.3843C13.2481 22.3843 11.4015 21.6194 10.04 20.2579C8.67845 18.8964 7.91356 17.0498 7.91356 15.1243Z" fill="#272525"/>
</svg>
