<svg width="29" height="29" viewBox="0 0 29 29" fill="none" xmlns="http://www.w3.org/2000/svg">
<path d="M27.0781 0.777344H1.92188C1.31689 0.777344 0.828125 1.26611 0.828125 1.87109V27.0273C0.828125 27.6323 1.31689 28.1211 1.92188 28.1211H27.0781C27.6831 28.1211 28.1719 27.6323 28.1719 27.0273V1.87109C28.1719 1.26611 27.6831 0.777344 27.0781 0.777344ZM8.93896 24.0776H4.88184V11.0278H8.93896V24.0776ZM6.91211 9.24365C6.44701 9.24365 5.99236 9.10574 5.60565 8.84734C5.21894 8.58895 4.91753 8.22169 4.73955 7.79199C4.56156 7.3623 4.515 6.88948 4.60573 6.43332C4.69647 5.97716 4.92043 5.55816 5.2493 5.22928C5.57818 4.90041 5.99718 4.67645 6.45334 4.58571C6.9095 4.49498 7.38232 4.54154 7.81201 4.71953C8.2417 4.89751 8.60897 5.19892 8.86736 5.58563C9.12576 5.97234 9.26367 6.42699 9.26367 6.89209C9.26025 8.19092 8.20752 9.24365 6.91211 9.24365ZM24.1284 24.0776H20.0747V17.7305C20.0747 16.2163 20.0474 14.2715 17.9658 14.2715C15.8569 14.2715 15.5322 15.9189 15.5322 17.6211V24.0776H11.4819V11.0278H15.3716V12.812H15.4263C15.9663 11.7866 17.2891 10.7031 19.2646 10.7031C23.373 10.7031 24.1284 13.4067 24.1284 16.9204V24.0776Z" fill="#272525"/>
</svg>
