<svg width="160" height="28" viewBox="0 0 160 28" fill="none" xmlns="http://www.w3.org/2000/svg">
<g clip-path="url(#clip0_11045_11410)">
<path d="M38.7618 8.39637C38.1049 7.74825 37.3417 7.24154 36.4674 6.87859C35.5954 6.51564 34.6503 6.33417 33.6318 6.33417H29.9551V20.6046H33.6318C34.6503 20.6046 35.5954 20.4255 36.4721 20.0649C37.3487 19.7043 38.1143 19.1999 38.7689 18.5518C39.4258 17.9037 39.9362 17.1472 40.3001 16.2822C40.664 15.4173 40.8459 14.484 40.8459 13.48C40.8459 12.476 40.6616 11.5403 40.2953 10.673C39.9291 9.80573 39.4163 9.04684 38.7594 8.39872L38.7618 8.39637ZM38.034 15.4974C37.7835 16.1172 37.4291 16.6569 36.9754 17.1189C36.5217 17.5808 35.99 17.9367 35.3804 18.1912C34.7708 18.4458 34.1068 18.5707 33.3908 18.5707H32.2282V8.36573H33.3908C34.1068 8.36573 34.7708 8.493 35.3804 8.74989C35.99 9.00678 36.5217 9.36501 36.9754 9.82223C37.4291 10.2818 37.7812 10.8215 38.034 11.4437C38.2868 12.0659 38.4121 12.7399 38.4121 13.4682C38.4121 14.1964 38.2868 14.8776 38.034 15.4974Z" fill="#272525"/>
<path d="M49.9387 11.9339C49.2559 11.5615 48.4595 11.373 47.5522 11.373C46.8882 11.373 46.2714 11.4908 45.6972 11.7289C45.1254 11.9669 44.6221 12.2969 44.1921 12.7211C43.762 13.1453 43.4241 13.6379 43.1807 14.1964C42.9373 14.7573 42.8145 15.3583 42.8145 16.0041C42.8145 16.8761 43.0295 17.6586 43.4572 18.3538C43.8849 19.0491 44.4662 19.5982 45.201 19.9989C45.9359 20.3995 46.7677 20.6022 47.6987 20.6022C48.6297 20.6022 49.4189 20.409 50.1538 20.0201C50.8886 19.6336 51.4628 19.0939 51.8764 18.4033L50.3357 17.6138C50.0002 18.0498 49.6292 18.3727 49.218 18.5848C48.8069 18.7969 48.3367 18.903 47.8097 18.903C47.2544 18.903 46.7629 18.7922 46.3329 18.5683C45.9052 18.3444 45.572 18.0333 45.3334 17.635C45.0947 17.2367 44.9765 16.7748 44.9765 16.2468H52.0701C52.0867 16.1337 52.0985 16.0536 52.1032 16.0041C52.1079 15.957 52.1127 15.8957 52.1127 15.8226C52.1127 14.9341 51.9213 14.1564 51.5385 13.4894C51.1557 12.8224 50.6216 12.3016 49.9387 11.9292V11.9339ZM45.0687 14.9294C45.1254 14.5287 45.2648 14.1823 45.4846 13.8948C45.7067 13.6072 45.9926 13.3833 46.3447 13.2254C46.6968 13.0675 47.0961 12.9874 47.5451 12.9874C47.994 12.9874 48.3556 13.0675 48.7029 13.2301C49.0503 13.3928 49.3362 13.6167 49.563 13.9042C49.7899 14.1917 49.9411 14.5358 50.0144 14.9318H45.0711L45.0687 14.9294Z" fill="#272525"/>
<path d="M79.638 16.1667C79.638 17.1448 79.4797 17.8401 79.1654 18.2549C78.8511 18.6697 78.3124 18.8747 77.5539 18.8747C76.7954 18.8747 76.2566 18.6673 75.9423 18.2549C75.6281 17.8424 75.4697 17.1472 75.4697 16.1667V11.644H73.3525V16.6405C73.3525 18.0545 73.6786 19.068 74.3308 19.6831C74.983 20.2959 76.0581 20.6046 77.5539 20.6046C79.0496 20.6046 80.1248 20.2982 80.7769 19.6831C81.4291 19.0703 81.7552 18.0545 81.7552 16.6405V11.644H79.638V16.1667Z" fill="#272525"/>
<path d="M110.737 8.39637C110.08 7.74825 109.317 7.24154 108.443 6.87859C107.571 6.51564 106.626 6.33417 105.607 6.33417H101.931V20.6046H105.607C106.626 20.6046 107.571 20.4255 108.448 20.0649C109.324 19.7043 110.09 19.1999 110.744 18.5518C111.399 17.9037 111.912 17.1472 112.276 16.2822C112.64 15.4173 112.821 14.484 112.821 13.48C112.821 12.476 112.637 11.5403 112.271 10.673C111.905 9.80573 111.392 9.04684 110.735 8.39872L110.737 8.39637ZM110.01 15.4974C109.759 16.1172 109.405 16.6569 108.951 17.1189C108.497 17.5808 107.966 17.9367 107.356 18.1912C106.746 18.4458 106.082 18.5707 105.366 18.5707H104.204V8.36573H105.366C106.082 8.36573 106.746 8.493 107.356 8.74989C107.966 9.00678 108.497 9.36501 108.951 9.82223C109.405 10.2818 109.757 10.8215 110.01 11.4437C110.26 12.0659 110.388 12.7399 110.388 13.4682C110.388 14.1964 110.262 14.8776 110.01 15.4974Z" fill="#272525"/>
<path d="M117.628 11.644H115.511V20.6022H117.628V11.644Z" fill="#272525"/>
<path d="M117.216 7.88259C117.027 7.76711 116.812 7.70819 116.574 7.70819C116.335 7.70819 116.127 7.76711 115.931 7.88259C115.735 7.99808 115.579 8.15363 115.463 8.34453C115.347 8.53778 115.288 8.7499 115.288 8.98086C115.288 9.21183 115.347 9.43572 115.463 9.62898C115.579 9.82224 115.735 9.98014 115.931 10.0956C116.127 10.2111 116.34 10.27 116.574 10.27C116.807 10.27 117.025 10.2111 117.216 10.0956C117.405 9.98014 117.559 9.8246 117.675 9.62898C117.79 9.43337 117.85 9.21654 117.85 8.98086C117.85 8.74518 117.79 8.53778 117.675 8.34453C117.559 8.15127 117.405 7.99808 117.216 7.88259Z" fill="#272525"/>
<path d="M127.826 12.9756C127.486 12.4713 127.034 12.08 126.47 11.7972C125.905 11.5144 125.288 11.373 124.62 11.373C123.781 11.373 123.034 11.5733 122.377 11.9763C121.723 12.377 121.205 12.9261 120.829 13.619C120.451 14.3119 120.265 15.1014 120.265 15.99C120.265 16.8785 120.458 17.6774 120.844 18.375C121.229 19.0703 121.749 19.6171 122.401 20.013C123.053 20.409 123.776 20.6069 124.57 20.6069C125.239 20.6069 125.855 20.4608 126.42 20.1662C126.985 19.8716 127.453 19.4639 127.828 18.9454V20.4891C127.828 21.0382 127.706 21.5143 127.462 21.9197C127.219 22.325 126.883 22.6361 126.458 22.8577C126.033 23.0792 125.541 23.1876 124.986 23.1876C124.357 23.1876 123.781 23.0486 123.259 22.7681C122.736 22.4876 122.351 22.1129 122.101 21.6439L120.366 22.4759C120.73 23.3007 121.302 23.93 122.089 24.3589C122.873 24.7879 123.84 25.0047 124.986 25.0047C126.132 25.0047 126.987 24.8232 127.724 24.4579C128.462 24.0926 129.017 23.5788 129.388 22.9142C129.759 22.2496 129.946 21.4695 129.946 20.5763V11.6511H127.828V12.9827L127.826 12.9756ZM127.545 17.4417C127.313 17.8636 126.992 18.1936 126.583 18.434C126.174 18.6743 125.704 18.7945 125.17 18.7945C124.636 18.7945 124.185 18.6743 123.778 18.434C123.372 18.1936 123.055 17.8636 122.826 17.4417C122.597 17.0199 122.481 16.5391 122.481 15.9947C122.481 15.4502 122.597 14.9671 122.831 14.5405C123.065 14.1139 123.384 13.7793 123.793 13.5389C124.201 13.2985 124.667 13.1783 125.187 13.1783C125.707 13.1783 126.172 13.2985 126.578 13.5389C126.985 13.7793 127.304 14.1139 127.54 14.5405C127.776 14.9671 127.892 15.4526 127.892 15.9947C127.892 16.5367 127.776 17.0199 127.543 17.4417H127.545Z" fill="#272525"/>
<path d="M134.927 7.88259C134.738 7.76711 134.523 7.70819 134.284 7.70819C134.046 7.70819 133.838 7.76711 133.642 7.88259C133.446 7.99808 133.29 8.15363 133.174 8.34453C133.058 8.53778 132.999 8.7499 132.999 8.98086C132.999 9.21183 133.058 9.43572 133.174 9.62898C133.29 9.82224 133.446 9.98014 133.642 10.0956C133.838 10.2111 134.051 10.27 134.284 10.27C134.518 10.27 134.736 10.2111 134.927 10.0956C135.116 9.98014 135.27 9.8246 135.386 9.62898C135.501 9.43337 135.56 9.21654 135.56 8.98086C135.56 8.74518 135.501 8.53778 135.386 8.34453C135.27 8.15127 135.116 7.99808 134.927 7.88259Z" fill="#272525"/>
<path d="M135.338 11.644H133.221V20.6046H135.338V11.644Z" fill="#272525"/>
<path d="M159.998 6.33417H157.881V20.6046H159.998V6.33417Z" fill="#272525"/>
<path d="M86.961 6.33417H84.8438V20.6046H86.961V6.33417Z" fill="#272525"/>
<path d="M94.7945 20.1379C94.5393 20.2864 94.2487 20.3995 93.9202 20.482C93.5894 20.5645 93.2681 20.6046 92.9491 20.6046C92.1622 20.6046 91.5478 20.35 91.1083 19.841C90.6688 19.3319 90.4491 18.6178 90.4491 17.6963V13.249H89.3857V11.6464H90.4491V6.33417H92.5663V11.6464H94.5748V13.249H92.5663V17.5502C92.5663 17.9296 92.6442 18.2195 92.7955 18.4198C92.9491 18.6202 93.1688 18.7215 93.4524 18.7215C93.7359 18.7215 94.0148 18.6319 94.2605 18.4505L94.7945 20.1379Z" fill="#272525"/>
<path d="M143.181 20.1379C142.925 20.2864 142.632 20.3995 142.304 20.482C141.976 20.5645 141.652 20.6046 141.335 20.6046C140.546 20.6046 139.932 20.35 139.492 19.841C139.053 19.3319 138.833 18.6178 138.833 17.6963V13.249H137.77V11.6464H138.833V6.33417H140.952V11.6464H142.959V13.249H140.952V17.5502C140.952 17.9296 141.028 18.2195 141.182 18.4198C141.335 18.6202 141.553 18.7215 141.836 18.7215C142.12 18.7215 142.401 18.6319 142.644 18.4505L143.181 20.1379Z" fill="#272525"/>
<path d="M5.00945 2H15.7136V17.3758C15.7136 21.5826 12.2873 25 8.06947 25H0V6.99641C0 4.23896 2.2448 2 5.00945 2Z" fill="#E40B43"/>
<path d="M152.479 11.6464V12.978C152.143 12.4736 151.69 12.0824 151.118 11.7996C150.544 11.5144 149.917 11.373 149.237 11.373C148.403 11.373 147.661 11.5757 147.009 11.9763C146.356 12.377 145.844 12.9261 145.473 13.619C145.102 14.3119 144.915 15.0991 144.915 15.9805C144.915 16.862 145.106 17.6704 145.489 18.3656C145.872 19.0609 146.392 19.6076 147.046 20.0059C147.701 20.4066 148.431 20.6046 149.237 20.6046C149.894 20.6046 150.503 20.4584 151.061 20.1686C151.621 19.8763 152.091 19.4686 152.479 18.943V20.6046H154.596V11.6464H152.479ZM152.188 17.4394C151.957 17.8636 151.638 18.1959 151.236 18.4363C150.834 18.6767 150.369 18.7969 149.842 18.7969C149.315 18.7969 148.854 18.6767 148.445 18.4363C148.036 18.1959 147.717 17.8636 147.484 17.4394C147.252 17.0152 147.136 16.532 147.136 15.99C147.136 15.4479 147.252 14.9624 147.484 14.5382C147.717 14.1139 148.036 13.7816 148.445 13.5412C148.854 13.3008 149.32 13.1807 149.842 13.1807C150.364 13.1807 150.834 13.3008 151.236 13.5412C151.638 13.7816 151.957 14.1139 152.188 14.5335C152.422 14.9553 152.538 15.4408 152.538 15.99C152.538 16.5391 152.422 17.0152 152.188 17.4394Z" fill="#272525"/>
<path d="M57.0109 11.6464H59.1305V13.249H57.0109V20.6046H54.8937V13.249H53.8398V11.6464H54.8937V9.99192C54.8937 9.23303 55.0095 8.58255 55.2434 8.03578C55.475 7.489 55.8082 7.06949 56.243 6.77489C56.6754 6.48265 57.2023 6.33417 57.819 6.33417C58.2066 6.33417 58.5776 6.39073 58.9344 6.50386C59.2912 6.61698 59.6007 6.77489 59.8606 6.97993L59.121 8.46471C58.854 8.28795 58.5445 8.20075 58.1853 8.20075C57.8852 8.20075 57.6489 8.27617 57.4811 8.42465C57.3087 8.57548 57.1881 8.78524 57.1173 9.05863C57.0464 9.32966 57.0109 9.64783 57.0109 10.0155V11.6464Z" fill="#272525"/>
<path d="M68.1449 11.6464V12.978C67.8093 12.4736 67.3556 12.0824 66.7838 11.7996C66.2096 11.5144 65.5834 11.373 64.9029 11.373C64.0688 11.373 63.3268 11.5757 62.6746 11.9763C62.0225 12.377 61.5097 12.9261 61.1387 13.619C60.7677 14.3119 60.5811 15.0991 60.5811 15.9805C60.5811 16.862 60.7725 17.6704 61.1552 18.3656C61.538 19.0609 62.0579 19.6076 62.7124 20.0059C63.367 20.4066 64.0971 20.6046 64.9029 20.6046C65.5622 20.6046 66.1694 20.4584 66.7271 20.1686C67.2871 19.8763 67.7597 19.4686 68.1449 18.943V20.6046H70.2621V11.6464H68.1449ZM67.8542 17.4394C67.6226 17.8636 67.306 18.1959 66.9019 18.4363C66.5002 18.6767 66.0347 18.7969 65.5078 18.7969C64.9809 18.7969 64.5201 18.6767 64.1113 18.4363C63.7049 18.1959 63.3835 17.8636 63.1519 17.4394C62.918 17.0152 62.8022 16.532 62.8022 15.99C62.8022 15.4479 62.918 14.9624 63.1519 14.5382C63.3835 14.1139 63.7049 13.7816 64.1113 13.5412C64.5201 13.3008 64.9856 13.1807 65.5078 13.1807C66.03 13.1807 66.5002 13.3008 66.9019 13.5412C67.306 13.7816 67.6226 14.1139 67.8542 14.5335C68.0881 14.9553 68.2039 15.4408 68.2039 15.99C68.2039 16.5391 68.0881 17.0152 67.8542 17.4394Z" fill="#272525"/>
</g>
<defs>
<clipPath id="clip0_11045_11410">
<rect width="160" height="23" fill="white" transform="translate(0 2)"/>
</clipPath>
</defs>
</svg>
