<svg width="59" height="61" viewBox="0 0 59 61" fill="none" xmlns="http://www.w3.org/2000/svg">
<g clip-path="url(#clip0_9560_46858)">
<mask id="path-1-inside-1_9560_46858" fill="white">
<path fill-rule="evenodd" clip-rule="evenodd" d="M34.7729 18.0404L21.3242 22.2134V33.8274L34.7729 38.0003C36.0599 38.3996 37.3656 37.4377 37.3656 36.0901V31.978C37.9144 31.5213 38.3074 30.2933 38.3074 28.85C38.3074 27.4068 37.9144 26.1787 37.3656 25.722V19.9506C37.3656 18.603 36.0599 17.6411 34.7729 18.0404ZM12 22.2134C10.8954 22.2134 10 23.1088 10 24.2134V31.8273C10 32.9319 10.8954 33.8273 12 33.8273H12.832V41.9524C12.832 42.5047 13.2797 42.9524 13.832 42.9524H15.6065C16.1587 42.9524 16.6065 42.5047 16.6065 41.9524V33.8273H21.3233V22.2134H12Z"/>
</mask>
<path d="M21.3242 22.2134L20.8797 20.7808L19.8242 21.1083V22.2134H21.3242ZM34.7729 18.0404L34.3283 16.6078L34.7729 18.0404ZM21.3242 33.8274H19.8242V34.9325L20.8797 35.26L21.3242 33.8274ZM34.7729 38.0003L34.3283 39.4329L34.7729 38.0003ZM37.3656 31.978L36.4061 30.825L35.8656 31.2748V31.978H37.3656ZM37.3656 25.722H35.8656V26.4252L36.4061 26.875L37.3656 25.722ZM12.832 33.8273H14.332V32.3273H12.832V33.8273ZM16.6065 33.8273V32.3273H15.1065V33.8273H16.6065ZM21.3233 33.8273V35.3273H22.8233V33.8273H21.3233ZM21.3233 22.2134H22.8233V20.7134H21.3233V22.2134ZM21.7687 23.646L35.2174 19.4731L34.3283 16.6078L20.8797 20.7808L21.7687 23.646ZM22.8242 33.8274V22.2134H19.8242V33.8274H22.8242ZM35.2174 36.5677L21.7687 32.3947L20.8797 35.26L34.3283 39.4329L35.2174 36.5677ZM35.8656 36.0901C35.8656 36.427 35.5391 36.6675 35.2174 36.5677L34.3283 39.4329C36.5807 40.1318 38.8656 38.4484 38.8656 36.0901H35.8656ZM35.8656 31.978V36.0901H38.8656V31.978H35.8656ZM36.8074 28.85C36.8074 29.4434 36.7256 29.9609 36.6081 30.3445C36.4767 30.7733 36.3536 30.8687 36.4061 30.825L38.325 33.131C38.9263 32.6306 39.2742 31.8836 39.4765 31.2234C39.6926 30.518 39.8074 29.6999 39.8074 28.85H36.8074ZM36.4061 26.875C36.3536 26.8314 36.4767 26.9267 36.6081 27.3556C36.7256 27.7391 36.8074 28.2566 36.8074 28.85H39.8074C39.8074 28.0002 39.6926 27.182 39.4765 26.4766C39.2742 25.8164 38.9263 25.0694 38.325 24.569L36.4061 26.875ZM35.8656 19.9506V25.722H38.8656V19.9506H35.8656ZM35.2174 19.4731C35.5392 19.3732 35.8656 19.6137 35.8656 19.9506H38.8656C38.8656 17.5923 36.5807 15.9089 34.3283 16.6078L35.2174 19.4731ZM11.5 24.2134C11.5 23.9372 11.7239 23.7134 12 23.7134V20.7134C10.067 20.7134 8.5 22.2804 8.5 24.2134H11.5ZM11.5 31.8273V24.2134H8.5V31.8273H11.5ZM12 32.3273C11.7239 32.3273 11.5 32.1035 11.5 31.8273H8.5C8.5 33.7603 10.067 35.3273 12 35.3273V32.3273ZM12.832 32.3273H12V35.3273H12.832V32.3273ZM14.332 41.9524V33.8273H11.332V41.9524H14.332ZM13.832 41.4524C14.1082 41.4524 14.332 41.6763 14.332 41.9524H11.332C11.332 43.3331 12.4513 44.4524 13.832 44.4524V41.4524ZM15.6065 41.4524H13.832V44.4524H15.6065V41.4524ZM15.1065 41.9524C15.1065 41.6763 15.3303 41.4524 15.6065 41.4524V44.4524C16.9872 44.4524 18.1065 43.3331 18.1065 41.9524H15.1065ZM15.1065 33.8273V41.9524H18.1065V33.8273H15.1065ZM21.3233 32.3273H16.6065V35.3273H21.3233V32.3273ZM19.8233 22.2134V33.8273H22.8233V22.2134H19.8233ZM12 23.7134H21.3233V20.7134H12V23.7134Z" fill="#272525" mask="url(#path-1-inside-1_9560_46858)"/>
<line x1="21.75" y1="22.9492" x2="21.75" y2="32.9492" stroke="#272525" stroke-width="1.5"/>
<path d="M39.252 23.7275L44.9136 20.4093" stroke="#272525" stroke-width="2" stroke-linecap="round"/>
<path d="M40 28.9531H47" stroke="#272525" stroke-width="2" stroke-linecap="round"/>
<path d="M44.9141 37L39.2524 33.6817" stroke="#272525" stroke-width="2" stroke-linecap="round"/>
</g>
<defs>
<clipPath id="clip0_9560_46858">
<rect width="58.627" height="60" fill="white" transform="translate(0 0.949219)"/>
</clipPath>
</defs>
</svg>
