<svg width="22" height="22" viewBox="0 0 22 22" fill="none" xmlns="http://www.w3.org/2000/svg">
<path d="M2.78125 19.1327L8.92957 12.9844" stroke="#272525" stroke-linecap="round"/>
<path d="M5.75731 12.6103L4.72144 11.5744C4.57405 11.427 4.57492 11.1886 4.72562 11.0446C6.56545 9.28645 10.0996 6.04852 11.3467 5.15775C13.9551 3.2947 15.4456 2.36306 17.3087 1.6178C18.7992 1.0216 20.476 0.68611 20.8486 1.05887C21.2213 1.43157 20.8114 3.03386 20.6623 3.48101C20.476 4.03995 18.6129 8.69777 16.5634 10.9335C15.0261 12.6106 12.2767 15.5107 10.8647 16.9922C10.7203 17.1436 10.4797 17.1464 10.3318 16.9985L9.29725 15.964" stroke="#272525" stroke-linecap="round"/>
<circle cx="13.9959" cy="7.76547" r="1.36313" stroke="#272525" stroke-linecap="round"/>
<path d="M10.6016 17.2672C10.6016 17.2672 11.1464 19.4605 11.3468 20.0619C11.5473 20.6632 11.7194 20.9934 11.9058 20.9934C12.4452 20.9934 14.0258 19.1425 14.9729 18.12C15.0372 18.0506 15.0731 17.9598 15.0731 17.8651V12.6094" stroke="#272525" stroke-linecap="round"/>
<path d="M2.96875 15.4046L4.45925 13.9141" stroke="#272525" stroke-linecap="round"/>
<path d="M6.5 18.9436L7.9905 17.4531" stroke="#272525" stroke-linecap="round"/>
<path d="M4.64368 11.3074C4.64368 11.3074 2.59137 10.7485 1.29006 10.3759C0.933388 10.2737 0.841326 9.70657 1.10374 9.44431C1.58985 8.95851 3.34217 7.34672 3.79239 6.93326C3.86107 6.8702 3.95016 6.83594 4.0434 6.83594H9.3015" stroke="#272525" stroke-linecap="round"/>
</svg>
