<svg width="59" height="61" viewBox="0 0 59 61" fill="none" xmlns="http://www.w3.org/2000/svg">
<path d="M17.1794 34.0692L12.7866 45.4171C12.4779 46.2146 13.2477 47.0065 14.0536 46.7205L25.3783 42.7021C25.5154 42.6534 25.6402 42.5754 25.7441 42.4736L47.6556 20.9834C48.0526 20.594 48.0557 19.9556 47.6625 19.5624L40.7427 12.6426C40.3576 12.2575 39.7351 12.2514 39.3425 12.6289L17.4188 33.7094C17.3137 33.8104 17.232 33.9332 17.1794 34.0692Z" stroke="#272525" stroke-width="1.5"/>
<path d="M17.2598 33.8623L25.5869 42.1895" stroke="#272525" stroke-width="1.5"/>
<path d="M20.3262 36.9305L37.4188 19.8379" stroke="#272525" stroke-width="1.5"/>
<path d="M23.3945 39.5604L40.4871 22.4678" stroke="#272525" stroke-width="1.5"/>
<path d="M35.2285 17.209L43.1174 25.0979" stroke="#272525" stroke-width="1.5"/>
<path d="M14.6289 41.3135L18.5733 45.2579" stroke="#272525" stroke-width="1.5"/>
</svg>
